<svg version="1.1" id="Layer_1" xmlns="http://www.w3.org/2000/svg" xmlns:xlink="http://www.w3.org/1999/xlink" x="0px" y="0px"
	 width="100%" viewBox="0 0 1024 1024" enable-background="new 0 0 1024 1024" xml:space="preserve">
<path fill="#000000" opacity="1.000000" stroke="none" 
	d="
M459.003601,463.934448 
	C436.725769,496.748993 408.246887,522.153687 373.216949,539.880798 
	C322.752655,565.418579 270.149139,551.003540 239.019058,503.740997 
	C224.958054,482.393219 216.788834,459.146423 215.655457,433.546814 
	C215.466614,429.281342 213.837189,426.906952 209.291595,427.264923 
	C209.126114,427.277985 208.956406,427.280182 208.792114,427.259766 
	C204.215424,426.691528 198.330566,429.245514 195.662643,423.740936 
	C192.578827,417.378174 193.454498,410.355133 195.306870,403.714050 
	C196.148773,400.695618 199.091248,399.913971 202.163513,399.698212 
	C206.749329,399.376190 212.468628,401.728394 215.620544,398.454498 
	C218.396011,395.571716 218.489761,390.162323 219.920166,385.920135 
	C227.983276,362.007294 244.405838,345.851257 267.125305,335.834351 
	C291.025726,325.296753 316.467346,322.254486 342.236572,321.777130 
	C367.717987,321.305115 393.175720,321.747406 418.657318,323.470673 
	C445.752838,325.303101 472.965027,323.958801 500.125305,324.006042 
	C535.119080,324.066925 570.152405,324.777954 605.094299,323.366394 
	C629.908936,322.363953 654.697632,321.234589 679.508667,321.781586 
	C705.713806,322.359344 731.770081,324.777954 756.522461,334.325195 
	C784.570251,345.143494 801.657776,365.412537 807.051880,395.081970 
	C807.790955,399.147461 809.526123,399.920929 812.979187,399.772797 
	C816.471619,399.622955 819.981934,399.655762 823.474915,399.815887 
	C827.826355,400.015381 830.230042,402.396210 830.324219,406.794708 
	C830.416992,411.125397 830.442505,415.462708 830.313660,419.791595 
	C830.177490,424.366699 827.581177,426.805023 823.102295,427.132935 
	C820.615234,427.315002 818.063843,427.483856 815.614502,427.139404 
	C810.251831,426.385193 808.667969,429.031860 808.340759,433.861908 
	C806.544434,460.378113 798.317932,484.757629 782.920898,506.456848 
	C765.423828,531.115662 742.763000,548.109924 711.853271,551.764954 
	C688.513794,554.524780 666.858337,548.771790 646.547424,537.534424 
	C609.741882,517.171082 578.884521,490.201935 556.423706,454.367157 
	C543.232544,433.321442 534.776489,410.644897 534.380371,385.286804 
	C534.292725,379.673096 532.733398,373.941925 532.394348,368.156799 
	C532.180054,364.501068 529.685791,361.770935 526.148132,360.344025 
	C515.788574,356.165588 505.358124,356.051300 495.017548,360.248138 
	C490.152527,362.222687 487.767883,367.008942 488.520844,373.060364 
	C488.905304,376.150391 489.009613,378.953918 487.204010,381.679749 
	C486.609772,382.576874 486.424103,383.889801 486.422607,385.013092 
	C486.385132,412.873199 475.814789,437.215668 461.370789,460.272491 
	C460.663025,461.402283 459.926849,462.514221 459.003601,463.934448 
M470.206879,344.283966 
	C474.492432,348.142944 477.653992,352.999176 481.152802,357.678528 
	C484.151062,355.286041 486.188843,352.689575 489.167114,351.513885 
	C505.514191,345.060852 521.555237,344.416229 536.686401,354.801483 
	C539.387024,356.654999 540.968201,356.659943 542.750000,353.957916 
	C545.326782,350.050415 548.514343,346.654602 551.876770,343.399261 
	C554.294678,341.058350 557.503662,339.505371 559.856079,335.972473 
	C526.813110,335.972473 494.572449,335.972473 460.784454,335.972473 
	C464.546173,339.272278 467.122345,341.532135 470.206879,344.283966 
z"/>
<path fill="#000000" opacity="1.000000" stroke="none" 
	d="
M344.401245,627.384644 
	C356.841461,616.787964 368.666718,606.010315 381.780518,596.788635 
	C398.589844,584.968262 416.477600,575.469543 437.067322,572.492126 
	C463.348663,568.691711 487.076599,574.741516 507.137573,592.659790 
	C510.614960,595.765747 512.664734,595.705261 516.255798,592.806030 
	C548.061462,567.128601 582.570496,565.193115 618.708191,582.288757 
	C637.707581,591.276855 653.541260,604.966492 669.381470,618.514099 
	C682.936462,630.107300 696.421021,641.849792 712.559692,649.811401 
	C733.394836,660.089783 754.724609,663.466736 776.269836,652.039490 
	C794.718689,642.254517 805.622986,620.439453 803.106384,599.642029 
	C802.696777,596.257019 802.406494,592.507935 806.470337,591.223328 
	C810.712891,589.882324 812.914001,593.135864 814.528442,596.316467 
	C819.862122,606.824219 821.661560,618.208069 821.115173,629.767456 
	C819.942383,654.578308 810.944885,676.479980 794.573486,695.140686 
	C773.372375,719.306702 746.595215,734.437927 715.181763,740.088135 
	C648.800354,752.027832 588.363342,736.778442 533.638855,697.876526 
	C526.973267,693.138062 520.933960,687.563293 515.580139,681.395691 
	C512.487305,677.832825 510.366943,678.499023 507.575348,681.471313 
	C491.244385,698.859131 471.545715,711.506775 450.067780,721.434509 
	C422.912354,733.986389 394.370941,741.266113 364.476013,743.502014 
	C335.099030,745.699158 306.511108,742.388916 279.333893,730.952698 
	C248.136093,717.824524 223.644745,696.935669 210.063477,665.222900 
	C201.150070,644.409790 198.931824,622.842834 206.632309,600.970520 
	C207.396408,598.800171 208.530396,596.699219 209.825272,594.791870 
	C211.447769,592.401917 213.565613,590.123291 216.823120,591.226196 
	C220.080841,592.329224 220.502197,595.360901 220.153595,598.288208 
	C219.579697,603.107605 219.607162,607.846619 220.172668,612.695007 
	C223.067139,637.510498 243.592148,656.965393 268.634277,658.746277 
	C288.819275,660.181702 306.669250,653.778870 323.387085,643.235718 
	C330.728424,638.605835 337.554199,633.271790 344.401245,627.384644 
z"/>
</svg>